HIERARCHY
ROOT Hips
{
	OFFSET -3.958830 18.904000 13.208200
	CHANNELS 6 Xposition Yposition Zposition Zrotation Yrotation Xrotation 
	JOINT LHipJoint
	{
		OFFSET 0.000000 0.000000 0.000000
		CHANNELS 3 Zrotation Yrotation Xrotation
		JOINT LeftUpLeg
		{
			OFFSET 1.800000 -1.400000 0.085000
			CHANNELS 3 Zrotation Yrotation Xrotation
			JOINT LeftLeg
			{
				OFFSET 2.215000 -6.000000 0.000000
				CHANNELS 3 Zrotation Yrotation Xrotation
				JOINT LeftFoot
				{
					OFFSET 2.500000 -6.900000 0.000000
					CHANNELS 3 Zrotation Yrotation Xrotation
					JOINT LeftToeBase
					{
						OFFSET 0.200000 -0.500000 1.950000
						CHANNELS 3 Zrotation Yrotation Xrotation
						End Site
						{
							OFFSET 0.000000 0.000000 0.000000
						}
					}
				}
			}
		}
	}
	JOINT RHipJoint
	{
		OFFSET 0.000000 0.000000 0.000000
		CHANNELS 3 Zrotation Yrotation Xrotation
		JOINT RightUpLeg
		{
			OFFSET -1.800000 -1.400000 0.085000
			CHANNELS 3 Zrotation Yrotation Xrotation
			JOINT RightLeg
			{
				OFFSET -2.215000 -6.000000 0.000000
				CHANNELS 3 Zrotation Yrotation Xrotation
				JOINT RightFoot
				{
					OFFSET -2.500000 -6.900000 0.000000
					CHANNELS 3 Zrotation Yrotation Xrotation
					JOINT RightToeBase
					{
						OFFSET -0.200000 -0.500000 1.950000
						CHANNELS 3 Zrotation Yrotation Xrotation
						End Site
						{
							OFFSET 0.000000 0.000000 0.000000
						}
					}
				}
			}
		}
	}
	JOINT LowerBack
	{
		OFFSET 0.000000 0.000000 0.000000
		CHANNELS 3 Zrotation Yrotation Xrotation
		JOINT Spine
		{
			OFFSET -0.087000 1.940000 -0.288900
			CHANNELS 3 Zrotation Yrotation Xrotation
			JOINT Spine1
			{
				OFFSET 0.000000 1.950000 0.060000
				CHANNELS 3 Zrotation Yrotation Xrotation
				JOINT Neck
				{
					OFFSET 0.000000 0.000000 0.000000
					CHANNELS 3 Zrotation Yrotation Xrotation
					JOINT Neck1
					{
						OFFSET 0.000000 1.600000 0.340000
						CHANNELS 3 Zrotation Yrotation Xrotation
						JOINT Head
						{
							OFFSET 0.000000 1.667000 -0.240000
							CHANNELS 3 Zrotation Yrotation Xrotation
							End Site
							{
								OFFSET 0.000000 0.000000 0.000000
							}
						}
					}
				}
				JOINT LeftShoulder
				{
					OFFSET 0.000000 0.000000 0.000000
					CHANNELS 3 Zrotation Yrotation Xrotation
					JOINT LeftArm
					{
						OFFSET 2.700000 1.550000 -0.730000
						CHANNELS 3 Zrotation Yrotation Xrotation
						JOINT LeftForeArm
						{
							OFFSET 5.450000 0.000000 0.000000
							CHANNELS 3 Zrotation Yrotation Xrotation
							JOINT LeftHand
							{
								OFFSET 3.450000 0.000000 0.000000
								CHANNELS 3 Zrotation Yrotation Xrotation
								JOINT LeftHandIndex1
								{
									OFFSET 0.750000 0.000000 0.000000
									CHANNELS 3 Zrotation Yrotation Xrotation
									End Site
									{
										OFFSET 0.000000 0.000000 0.000000
									}
								}
							}
						}
					}
				}
				JOINT RightShoulder
				{
					OFFSET 0.000000 0.000000 0.000000
					CHANNELS 3 Zrotation Yrotation Xrotation
					JOINT RightArm
					{
						OFFSET -2.700000 1.550000 -0.730000
						CHANNELS 3 Zrotation Yrotation Xrotation
						JOINT RightForeArm
						{
							OFFSET -5.450000 0.000000 0.000000
							CHANNELS 3 Zrotation Yrotation Xrotation
							JOINT RightHand
							{
								OFFSET -3.450000 0.000000 0.000000
								CHANNELS 3 Zrotation Yrotation Xrotation
								JOINT RightHandIndex1
								{
									OFFSET -0.750000 0.000000 0.000000
									CHANNELS 3 Zrotation Yrotation Xrotation
									End Site
									{
										OFFSET 0.000000 0.000000 0.000000
									}
								}
							}
						}
					}
				}
			}
		}
	}
}
MOTION
Frames: 12
Frame Time: 0.016667
-0.918240 17.024070 -1.898430 -1.964329 -23.315337 -17.817220 -15.135432 13.278456 3.406316 2.220540 1.416016 1.808474 -5.006063 4.112824 -2.660068 -0.388151 4.636841 3.150006 -0.239890 -0.239790 -0.528240 18.196462 -10.542046 3.615548 -8.655066 -2.692963 21.684749 8.070083 -6.844154 0.515506 -1.047598 -6.545474 2.191607 0.016020 0.781960 0.227110 -3.292750 -2.428131 -8.182193 13.963582 1.643972 39.587787 -9.414666 11.464150 1.785839 3.132899 -4.477046 -14.759793 -12.405135 4.593079 47.214410 -1.841740 -1.227090 -4.657040 18.740777 -5.053970 2.038640 34.199704 -12.157306 -5.452665 134.302059 22.317078 47.631571 -4.678211 2.740566 0.425550 0.345220 -0.102810 0.197810 -24.622539 16.806177 9.246177 -27.407908 1.329385 -10.941781 -133.945674 -25.744216 49.263421 2.851359 -1.625248 -0.430230 0.599500 0.540410 0.122870 
-0.909680 17.025230 -1.924260 -1.887519 -21.640385 -20.784722 -15.013207 12.942820 3.326343 2.257750 1.654969 4.318416 -5.459288 4.408569 -1.566574 -0.380875 4.803164 3.102573 -0.168950 -0.149950 -0.478650 18.334362 -10.830387 3.684565 -8.595554 -2.930092 24.213642 7.550157 -7.110721 0.987525 -1.136350 -6.904865 2.061726 0.097760 0.773700 0.231820 -3.750653 -1.392462 -8.016260 15.759551 0.008300 40.981872 -10.770932 10.382074 8.490163 2.864654 -4.273130 -12.934217 -10.406314 2.873398 42.437536 -2.243130 -1.583010 -7.050840 17.160777 -6.672749 1.363971 37.880200 -11.931532 -8.000999 126.690187 25.691549 43.274991 -4.655212 2.855986 0.384680 0.363220 -0.118980 0.213180 -23.155140 16.791160 8.863211 -27.040959 0.357210 -12.346081 -126.412036 -26.178901 40.489755 2.909936 -1.666306 -0.426720 0.596580 0.496630 0.117320 
-0.913210 17.028470 -1.936230 -1.491975 -22.093750 -22.343778 -14.848105 12.564237 3.196932 2.855350 1.707925 5.262358 -6.852085 4.751999 0.091880 -0.452212 4.960668 3.065438 -0.124620 -0.095100 -0.446450 18.504560 -11.262171 3.677516 -9.593436 -2.822703 24.638604 7.509289 -7.369912 2.166201 -1.155173 -7.152292 1.977669 0.182860 0.815580 0.233380 -4.341861 -0.067151 -7.788525 17.230114 -0.767651 39.654822 -11.568412 9.171699 15.315853 2.542992 -4.595050 -10.966907 -9.333876 3.130585 37.883363 -2.412300 -0.579700 -8.656470 15.201936 -8.506114 0.836075 39.564051 -10.806651 -10.067456 118.087710 26.191404 34.863118 -4.671861 2.958259 0.352620 0.414860 -0.162920 0.222310 -20.632870 16.994116 8.012418 -28.510164 1.696671 -13.832777 -118.530146 -24.706574 30.755825 2.897781 -1.681896 -0.464610 0.629230 0.488450 0.099460 
-0.911850 17.024970 -1.922840 -1.987357 -22.076008 -21.278160 -14.655041 12.138284 2.975401 2.816212 1.230242 3.720191 -6.812093 4.743657 1.896120 -0.663457 4.864620 3.121926 -0.114750 -0.110270 -0.435520 18.735327 -11.778392 3.635099 -8.700038 -3.006702 22.602962 5.818386 -7.261681 3.937717 -1.071082 -7.136640 1.965549 0.256230 0.914220 0.259700 -5.091185 1.472202 -7.513668 20.378418 -0.909485 34.828353 -11.853840 7.936531 21.512423 2.416282 -4.692561 -8.775922 -8.012750 3.299626 33.418232 -3.034480 -0.048010 -8.470860 14.413469 -9.113439 0.234224 38.814591 -12.550522 -11.780212 110.742594 23.883344 25.305754 -4.766019 3.044822 0.298570 0.512270 -0.260240 0.220650 -19.073671 15.772478 6.795151 -29.707928 4.586444 -14.647427 -110.436776 -19.477910 18.819625 2.793241 -1.726954 -0.529510 0.658470 0.526830 0.076040 
-0.906680 17.023180 -1.916050 -2.700327 -22.430461 -19.800445 -14.479461 11.838215 2.709636 3.688057 0.705062 0.883011 -7.611602 5.017449 4.806398 -0.829157 4.760818 3.158372 -0.134260 -0.137980 -0.454120 18.934823 -12.243222 3.578782 -8.280975 -3.178982 20.183009 5.422618 -7.268807 5.836433 -0.971619 -7.084258 1.987609 0.294210 0.983370 0.254600 -5.769212 2.732118 -7.260924 23.275482 -1.107016 30.255222 -12.717129 7.179147 24.575641 2.417559 -4.780187 -7.242611 -7.599539 3.468689 32.176574 -3.412670 -0.042630 -7.478090 14.704685 -8.038886 -0.317121 35.386393 -16.715812 -12.329919 105.521669 18.748509 15.642396 -4.802050 3.058510 0.242730 0.580120 -0.342660 0.208430 -18.753555 13.445121 5.784313 -28.939954 8.358771 -14.713887 -102.844765 -12.506564 7.940843 2.640426 -1.754626 -0.574170 0.684650 0.568060 0.064630 
-0.897450 17.018460 -1.924960 -3.093210 -22.064909 -19.599008 -14.373730 11.743837 2.536797 4.165199 0.328914 -1.006480 -7.093446 5.086398 7.083917 -0.960005 4.687356 3.169861 -0.140510 -0.178560 -0.482520 19.048311 -12.534995 3.513806 -7.666791 -3.283077 18.894549 3.680447 -7.133483 7.973172 -0.928000 -6.995271 2.004919 0.298530 1.033650 0.273750 -6.133236 3.357849 -7.072031 25.120168 -1.437263 28.243135 -13.454843 6.483812 26.132278 2.157610 -5.229562 -6.404938 -8.341911 3.717881 32.424772 -2.049790 -0.963770 -7.653430 14.883141 -7.495894 -0.346018 31.852582 -19.497338 -11.876507 102.023148 11.726976 6.054173 -4.785269 3.040332 0.263120 0.588010 -0.374430 0.208540 -18.103390 12.259523 4.909072 -28.635260 11.542729 -14.789783 -98.307003 -4.768493 -0.796897 2.478866 -1.724265 -0.600990 0.713790 0.623580 0.062030 
-0.885460 17.019310 -1.948070 -3.844266 -21.910685 -19.991111 -14.281865 11.650608 2.376593 4.917483 0.085702 -2.171397 -6.596355 5.212032 9.136797 -1.070217 4.694950 3.141806 -0.194950 -0.273830 -0.522550 19.149422 -12.794720 3.497334 -6.241834 -3.504762 18.299772 1.870848 -6.962072 10.291053 -0.893375 -6.930187 2.010768 0.273030 1.065050 0.259140 -6.468257 3.988316 -6.916502 27.519546 -2.002437 27.016553 -14.760054 5.779977 27.899810 2.191101 -5.572931 -6.168630 -9.102371 3.968519 33.764017 -0.597500 -1.784980 -7.664240 16.093101 -7.443222 0.089764 28.069754 -20.993209 -10.979499 100.661894 4.651445 -2.401616 -4.766050 2.979724 0.307190 0.573550 -0.406120 0.177230 -18.921381 11.682745 4.584519 -26.578573 14.078819 -14.779282 -96.125966 2.174298 -8.073431 2.392388 -1.667418 -0.655130 0.749840 0.702220 0.043290 
-0.874030 17.006750 -1.968870 -3.968376 -22.581620 -20.862993 -14.238651 11.615990 2.255985 4.895904 -0.110074 -2.966743 -5.575588 5.283404 11.483346 -1.156985 4.764569 3.110244 -0.266590 -0.376850 -0.603050 19.193521 -12.991028 3.511280 -4.997029 -3.505224 18.045189 -0.032468 -6.663910 12.389872 -0.833156 -6.958283 1.987248 0.262020 1.160210 0.272150 -6.682648 4.442310 -6.791525 28.480985 -2.065956 27.148459 -15.015323 5.471845 29.300210 1.797074 -5.915839 -5.708567 -9.303072 3.936311 32.366605 0.467550 -2.701570 -6.832370 19.394750 -5.714529 0.289994 21.757663 -23.508646 -9.421270 101.699658 -2.077582 -11.149210 -4.848709 2.983900 0.276600 0.623170 -0.487010 0.163420 -21.176595 10.209057 4.185570 -23.036926 16.828362 -14.417550 -96.722657 8.968081 -15.729736 2.309967 -1.675398 -0.705630 0.774730 0.792190 0.053300 
-0.863660 16.987150 -1.984950 -4.102191 -23.031565 -21.191065 -14.199907 11.595217 2.198840 5.244318 -0.248297 -4.015752 -5.488687 5.444563 13.196241 -1.209820 4.812533 3.060342 -0.246040 -0.369350 -0.595080 19.223719 -13.133707 3.504359 -4.183023 -3.423048 17.236619 -0.920913 -6.504030 14.317136 -0.834686 -6.905543 1.981852 0.274370 1.151540 0.292650 -6.833451 4.754328 -6.726939 29.213734 -2.239959 27.269933 -15.763151 5.221427 29.467184 1.642378 -6.304168 -5.197036 -9.911903 4.096465 32.460184 1.341360 -3.176910 -8.379990 20.389377 -3.521167 0.148891 17.252716 -25.578599 -7.168627 103.090092 -10.034804 -20.560736 -4.812987 2.934735 0.319070 0.599250 -0.462860 0.161910 -21.844624 7.945254 3.496622 -20.197574 19.276771 -12.876658 -98.489842 17.966800 -25.272021 2.179940 -1.606545 -0.708950 0.786310 0.809100 0.048020 
-0.863180 16.961040 -2.001430 -3.819264 -23.883754 -20.595975 -14.205232 11.745248 2.219286 5.673978 -0.385509 -6.362353 -5.924535 5.786487 15.231003 -1.255169 4.858997 2.984974 -0.233010 -0.377290 -0.550300 19.185407 -13.135114 3.444007 -3.749014 -3.144183 15.309169 -1.330496 -6.347893 15.996274 -0.808021 -6.670078 2.049847 0.254320 1.070610 0.279050 -6.754176 4.508679 -6.696256 28.633011 -1.813493 26.808945 -16.056626 5.396434 28.595993 1.778133 -6.814535 -5.513475 -11.662139 4.499796 35.149448 1.440330 -3.249930 -10.391670 18.530556 -3.250417 0.309457 15.380905 -25.108525 -4.753912 105.135421 -19.822057 -31.226368 -4.682790 2.768387 0.424260 0.527810 -0.398830 0.131740 -20.654621 7.672030 3.169905 -19.372586 19.771492 -10.990278 -102.259900 26.714408 -35.334431 2.033112 -1.437231 -0.719200 0.790410 0.810250 0.005320 
-0.862580 16.936270 -2.011410 -3.775047 -24.484916 -19.135254 -14.237193 11.974190 2.320129 6.575627 -0.521745 -9.399583 -7.014225 6.288922 16.842163 -1.269184 4.961989 2.921512 -0.197990 -0.358870 -0.489150 19.115052 -13.009858 3.322477 -3.382636 -2.764812 12.586857 -1.297517 -6.219126 17.786392 -0.767882 -6.347687 2.180863 0.240360 1.000870 0.234530 -6.508611 3.866940 -6.710643 27.569909 -1.345798 25.966418 -15.741346 5.518240 26.520562 1.907843 -7.476141 -6.044574 -14.261559 5.084408 38.471204 1.198960 -3.433600 -12.421820 14.833153 -3.616241 0.461111 15.142872 -23.389218 -1.874535 110.177331 -30.943442 -45.216161 -4.515448 2.486135 0.535170 0.453820 -0.337230 0.132510 -17.898101 8.245705 2.754459 -21.333447 19.269766 -8.831539 -107.015463 35.920623 -46.854752 1.850255 -1.180390 -0.739420 0.832360 0.773160 -0.034350 
-0.864900 16.922070 -2.020890 -3.983918 -25.537029 -17.996985 -14.278304 12.116605 2.407829 7.753449 -0.558080 -11.831661 -8.023940 6.874057 18.383123 -1.265905 5.162030 2.806933 -0.157560 -0.332740 -0.414920 19.057737 -12.872482 3.252115 -2.476754 -2.526303 10.672276 -1.790165 -5.931355 18.980998 -0.752804 -6.087133 2.252936 0.239230 0.927630 0.218770 -6.331876 3.393841 -6.726628 26.810654 -0.772725 25.096683 -15.074415 5.700047 25.452820 2.049976 -7.779898 -6.448343 -16.207527 5.441211 41.819096 0.393280 -3.673060 -14.318340 12.927293 -3.882925 0.530133 14.610680 -22.965546 0.661840 115.386204 -39.737903 -59.385220 -4.394878 2.274583 0.613870 0.389490 -0.273570 0.122860 -16.670734 8.722615 2.616127 -22.282572 19.766514 -6.576003 -113.474516 43.665443 -60.809845 1.729590 -0.923712 -0.741060 0.849700 0.742040 -0.065430 
